<svg width="563" height="191" viewBox="0 0 563 191" fill="none" xmlns="http://www.w3.org/2000/svg">
<path d="M0.928101 53.4566C0.928101 34.9698 10.5046 23.1646 27.2105 23.1646C38.7918 23.1646 46.1423 28.8447 49.5955 37.4196L39.5714 42.0973C37.9019 36.7517 33.7816 33.2994 27.2105 33.2994C18.3011 33.2994 13.7349 39.4245 13.7349 48.3339V58.6917C13.7349 67.6011 18.3011 73.7262 27.2105 73.7262C34.2257 73.7262 38.3478 69.9395 40.7967 64.1479L50.0415 69.0486C46.2548 78.5145 38.3478 83.7487 27.2105 83.7487C10.5046 83.7487 0.928101 71.9444 0.928101 53.4566Z" fill="#3333FF"/>
<path d="M56.6506 53.4566C56.6506 34.9698 67.1189 23.1646 83.2665 23.1646C99.4159 23.1646 109.884 34.9698 109.884 53.4566C109.884 71.9444 99.4159 83.7487 83.2665 83.7487C67.1189 83.7487 56.6506 71.9444 56.6506 53.4566ZM97.0757 58.3573V48.5569C97.0757 38.3115 91.5088 33.1879 83.2665 33.1879C75.0259 33.1879 69.4573 38.3115 69.4573 48.5569V58.3573C69.4573 68.6036 75.0259 73.7262 83.2665 73.7262C91.5088 73.7262 97.0757 68.6036 97.0757 58.3573Z" fill="#3333FF"/>
<path d="M156.587 72.8353H156.03C154.835 76.1489 152.614 78.9944 149.689 80.9574C146.765 82.9204 143.289 83.8983 139.77 83.7487C125.182 83.7487 116.716 72.5009 116.716 53.4566C116.716 34.4133 125.182 23.1646 139.77 23.1646C147.454 23.1646 153.579 27.1742 156.03 34.0788H156.587V0H168.726V82.4127H156.587V72.8353ZM156.587 63.3684V43.5456C156.587 37.6426 150.795 33.6338 143.445 33.6338C135.093 33.6338 129.525 39.5359 129.525 48.4454V58.4687C129.525 67.3781 135.093 73.2803 143.445 73.2803C150.795 73.2803 156.587 69.2715 156.587 63.3684Z" fill="#3333FF"/>
<path d="M177.154 53.4566C177.154 34.9698 187.288 23.1646 203.771 23.1646C220.811 23.1646 229.497 35.9722 229.497 52.0092V56.5754H189.739V58.4687C189.739 67.3782 195.195 73.7262 204.995 73.7262C208.088 73.8067 211.145 73.04 213.834 71.509C216.523 69.978 218.743 67.7409 220.252 65.0398L227.38 72.0558C223.037 79.0719 214.573 83.7487 203.771 83.7487C187.288 83.7487 177.154 71.9444 177.154 53.4566ZM189.739 47.7774V48.5569H216.689V47.443C216.689 38.5336 211.789 32.6314 203.771 32.6314C195.418 32.6314 189.739 38.8679 189.739 47.7774H189.739Z" fill="#3333FF"/>
<path d="M0 139.77C0 121.283 9.5765 109.478 26.2824 109.478C37.8638 109.478 45.2142 115.158 48.6674 123.733L38.6432 128.411C36.9737 123.065 32.8534 119.613 26.2824 119.613C17.3729 119.613 12.8067 125.738 12.8067 134.647V145.005C12.8067 153.915 17.3729 160.04 26.2824 160.04C33.2975 160.04 37.4196 156.253 39.8686 150.461L49.1134 155.362C45.3266 164.828 37.4196 170.062 26.2824 170.062C9.5765 170.062 0 158.258 0 139.77Z" fill="#3333FF"/>
<path d="M54.7944 139.77C54.7944 121.283 65.2627 109.478 81.4103 109.478C97.5596 109.478 108.028 121.283 108.028 139.77C108.028 158.258 97.5596 170.062 81.4103 170.062C65.2627 170.062 54.7944 158.258 54.7944 139.77ZM95.2194 144.671V134.87C95.2194 124.625 89.6526 119.501 81.4103 119.501C73.1697 119.501 67.6011 124.625 67.6011 134.87V144.671C67.6011 154.917 73.1697 160.04 81.4103 160.04C89.6526 160.04 95.2194 154.917 95.2194 144.671Z" fill="#3333FF"/>
<path d="M115.344 139.77C115.344 121.283 125.812 109.478 141.96 109.478C158.109 109.478 168.578 121.283 168.578 139.77C168.578 158.258 158.109 170.062 141.96 170.062C125.812 170.062 115.344 158.258 115.344 139.77ZM155.769 144.671V134.87C155.769 124.625 150.202 119.501 141.96 119.501C133.719 119.501 128.151 124.625 128.151 134.87V144.671C128.151 154.917 133.719 160.04 141.96 160.04C150.202 160.04 155.769 154.917 155.769 144.671Z" fill="#3333FF"/>
<path d="M177.005 110.815H189.145V120.392H189.701C192.152 113.488 198.277 109.478 205.961 109.478C220.55 109.478 229.015 120.727 229.015 139.77C229.015 158.814 220.55 170.062 205.961 170.062C202.442 170.212 198.967 169.234 196.042 167.271C193.117 165.308 190.896 162.462 189.701 159.149H189.145V191H177.005V110.815ZM216.206 144.782V134.759C216.206 125.849 210.64 119.947 202.287 119.947C194.936 119.947 189.145 123.956 189.145 129.859V149.682C189.145 155.585 194.936 159.594 202.287 159.594C210.64 159.594 216.206 153.692 216.206 144.782Z" fill="#3333FF"/>
<path d="M236.775 139.77C236.775 121.283 246.91 109.478 263.393 109.478C280.432 109.478 289.119 122.286 289.119 138.323V142.889H249.361V144.782C249.361 153.692 254.817 160.04 264.616 160.04C267.71 160.12 270.766 159.353 273.456 157.822C276.145 156.291 278.364 154.054 279.874 151.353L287.001 158.369C282.658 165.385 274.195 170.062 263.393 170.062C246.91 170.062 236.775 158.258 236.775 139.77ZM249.361 134.091V134.87H276.31V133.756C276.31 124.847 271.41 118.945 263.393 118.945C255.04 118.945 249.361 125.181 249.361 134.091H249.361Z" fill="#3333FF"/>
<path d="M299.402 168.726V110.815H311.542V121.951H312.098C313.77 116.049 318.782 110.815 328.025 110.815H331.255V122.509H326.466C316.888 122.509 311.542 125.738 311.542 131.753V168.726L299.402 168.726Z" fill="#3333FF"/>
<path d="M381.336 168.726C374.988 168.726 371.647 164.716 370.866 159.037H370.31C368.084 166.276 361.846 170.062 353.383 170.062C341.466 170.062 334.672 163.269 334.672 152.801C334.672 141.33 343.248 135.427 359.395 135.427H369.866V130.527C369.866 123.511 366.079 119.39 357.949 119.39C355.145 119.324 352.376 120.025 349.942 121.419C347.507 122.813 345.5 124.845 344.138 127.297L336.9 120.727C340.686 114.267 347.48 109.478 358.728 109.478C373.65 109.478 382.003 116.829 382.003 129.748V158.814H388.128V168.726L381.336 168.726ZM369.866 151.575V143.223H359.618C351.155 143.223 347.034 146.008 347.034 151.019V153.024C347.034 158.146 350.821 160.819 356.834 160.819C364.297 160.819 369.866 157.255 369.866 151.575Z" fill="#3333FF"/>
<path d="M411.63 168.726C403.277 168.726 398.823 164.049 398.823 156.142V120.727H389.802V110.815H394.701C398.711 110.815 400.047 109.145 400.047 105.135V95.001H410.961V110.815H423.101V120.727H410.961V158.814H422.209V168.726H411.63Z" fill="#3333FF"/>
<path d="M432.866 94.1101V92.2167C432.866 88.5415 435.092 85.8687 440.104 85.8687C445.116 85.8687 447.232 88.5415 447.232 92.2167V94.1101C447.232 97.7853 445.116 100.458 440.104 100.458C435.092 100.458 432.866 97.7853 432.866 94.1101ZM433.979 110.815H446.119V168.726H433.979V110.815Z" fill="#3333FF"/>
<path d="M473.811 168.726L454.1 110.815H466.127L474.926 137.209L480.828 157.478H481.497L487.399 137.209L496.419 110.815H508.003L488.066 168.726H473.811Z" fill="#3333FF"/>
<path d="M510.268 139.77C510.268 121.283 520.403 109.478 536.884 109.478C553.924 109.478 562.61 122.286 562.61 138.323V142.889H522.852V144.782C522.852 153.692 528.31 160.04 538.11 160.04C541.203 160.12 544.26 159.353 546.949 157.822C549.638 156.291 551.858 154.054 553.367 151.353L560.495 158.369C556.152 165.385 547.688 170.062 536.884 170.062C520.403 170.062 510.268 158.258 510.268 139.77ZM522.852 134.091V134.87H549.803V133.756C549.803 124.847 544.904 118.945 536.884 118.945C528.533 118.945 522.852 125.181 522.852 134.091V134.091Z" fill="#3333FF"/>
</svg>
