<svg width="211" height="27" viewBox="0 0 211 27" fill="none" xmlns="http://www.w3.org/2000/svg">
<path d="M0 13.5872C0 8.88838 2.43408 5.88782 6.68025 5.88782C9.62393 5.88782 11.4922 7.33154 12.3699 9.51107L9.82203 10.7C9.39769 9.34129 8.35043 8.46381 6.68025 8.46381C4.41572 8.46381 3.25512 10.0206 3.25512 12.2852V14.9179C3.25512 17.1824 4.41572 18.7392 6.68025 18.7392C8.46331 18.7392 9.51103 17.7767 10.1335 16.3047L12.4833 17.5503C11.5208 19.9563 9.51102 21.2866 6.68025 21.2866C2.43408 21.2866 0 18.2863 0 13.5872Z" fill="#F2EFE4"/>
<path d="M14.1631 13.5872C14.1631 8.88838 16.8239 5.88782 20.9281 5.88782C25.0328 5.88782 27.6936 8.88838 27.6936 13.5872C27.6936 18.2863 25.0328 21.2866 20.9281 21.2866C16.8239 21.2866 14.1631 18.2863 14.1631 13.5872ZM24.438 14.8328V12.3418C24.438 9.73775 23.0231 8.43547 20.9281 8.43547C18.8336 8.43547 17.4182 9.73775 17.4182 12.3418V14.8328C17.4182 17.4372 18.8336 18.7392 20.9281 18.7392C23.0231 18.7392 24.438 17.4372 24.438 14.8328Z" fill="#F2EFE4"/>
<path d="M39.5642 18.5127H39.4227C39.1191 19.3549 38.5544 20.0782 37.811 20.5771C37.0677 21.0761 36.1844 21.3246 35.2899 21.2866C31.5819 21.2866 29.4302 18.4277 29.4302 13.5872C29.4302 8.74689 31.5819 5.88778 35.2899 5.88778C37.243 5.88778 38.7998 6.90694 39.4227 8.66189H39.5642V0H42.6497V20.947H39.5642V18.5127ZM39.5642 16.1065V11.0681C39.5642 9.56769 38.0921 8.54876 36.2238 8.54876C34.1012 8.54876 32.6858 10.0489 32.6858 12.3135V14.8611C32.6858 17.1256 34.1012 18.6258 36.2238 18.6258C38.0921 18.6258 39.5642 17.6069 39.5642 16.1065Z" fill="#F2EFE4"/>
<path d="M44.7917 13.5872C44.7917 8.88838 47.3677 5.88782 51.5572 5.88782C55.8881 5.88782 58.096 9.14316 58.096 13.2193V14.3799H47.9906V14.8612C47.9906 17.1257 49.3774 18.7392 51.8682 18.7392C52.6544 18.7597 53.4313 18.5648 54.1148 18.1756C54.7984 17.7865 55.3625 17.2179 55.7462 16.5313L57.5578 18.3146C56.4539 20.0979 54.3027 21.2866 51.5572 21.2866C47.3677 21.2866 44.7917 18.2863 44.7917 13.5872ZM47.9906 12.1437V12.3418H54.8404V12.0587C54.8404 9.79419 53.595 8.29402 51.5572 8.29402C49.4341 8.29402 47.9906 9.87919 47.9906 12.1437V12.1437Z" fill="#F2EFE4"/>
<path d="M67.7641 13.7003C67.7641 9.00143 70.1982 6.00085 74.4444 6.00085C77.388 6.00085 79.2563 7.44459 80.134 9.62411L77.5861 10.813C77.1618 9.45433 76.1145 8.57686 74.4444 8.57686C72.1798 8.57686 71.0192 10.1337 71.0192 12.3982V15.0309C71.0192 17.2954 72.1798 18.8522 74.4444 18.8522C76.2274 18.8522 77.2751 17.8898 77.8976 16.4177L80.2474 17.6633C79.2849 20.0693 77.2751 21.3997 74.4444 21.3997C70.1982 21.3997 67.7641 18.3993 67.7641 13.7003Z" fill="#F2EFE4"/>
<path d="M81.6913 13.7003C81.6913 9.00143 84.3521 6.00085 88.4564 6.00085C92.5611 6.00085 95.2219 9.00143 95.2219 13.7003C95.2219 18.3993 92.5611 21.3997 88.4564 21.3997C84.3521 21.3997 81.6913 18.3993 81.6913 13.7003ZM91.9663 14.9459V12.4549C91.9663 9.85079 90.5513 8.54852 88.4564 8.54852C86.3618 8.54852 84.9465 9.85079 84.9465 12.4549V14.9459C84.9465 17.5502 86.3619 18.8522 88.4564 18.8522C90.5513 18.8522 91.9663 17.5502 91.9663 14.9459Z" fill="#F2EFE4"/>
<path d="M97.0814 13.7003C97.0814 9.00143 99.7422 6.00085 103.846 6.00085C107.951 6.00085 110.612 9.00143 110.612 13.7003C110.612 18.3993 107.951 21.3997 103.846 21.3997C99.7422 21.3997 97.0814 18.3993 97.0814 13.7003ZM107.356 14.9459V12.4549C107.356 9.85079 105.941 8.54852 103.846 8.54852C101.752 8.54852 100.337 9.85079 100.337 12.4549V14.9459C100.337 17.5502 101.752 18.8522 103.846 18.8522C105.941 18.8522 107.356 17.5502 107.356 14.9459Z" fill="#F2EFE4"/>
<path d="M112.754 6.34066H115.839V8.77497H115.981C116.604 7.02001 118.161 6.00085 120.114 6.00085C123.822 6.00085 125.973 8.85998 125.973 13.7003C125.973 18.5408 123.822 21.3997 120.114 21.3997C119.219 21.4377 118.336 21.1892 117.593 20.6902C116.849 20.1913 116.285 19.468 115.981 18.6258H115.839V26.7214H112.754V6.34066ZM122.718 14.9742V12.4266C122.718 10.162 121.303 8.66189 119.18 8.66189C117.312 8.66189 115.839 9.68079 115.839 11.1812V16.2196C115.839 17.72 117.312 18.7389 119.18 18.7389C121.303 18.7389 122.718 17.2387 122.718 14.9742Z" fill="#F2EFE4"/>
<path d="M127.946 13.7003C127.946 9.00143 130.522 6.00085 134.711 6.00085C139.042 6.00085 141.25 9.25621 141.25 13.3324V14.493H131.145V14.9742C131.145 17.2387 132.532 18.8522 135.022 18.8522C135.809 18.8727 136.585 18.6778 137.269 18.2887C137.953 17.8995 138.517 17.331 138.9 16.6444L140.712 18.4277C139.608 20.211 137.457 21.3997 134.711 21.3997C130.522 21.3997 127.946 18.3993 127.946 13.7003ZM131.145 12.2568V12.4549H137.995V12.1718C137.995 9.90724 136.749 8.40709 134.711 8.40709C132.588 8.40707 131.145 9.99224 131.145 12.2568H131.145Z" fill="#F2EFE4"/>
<path d="M143.864 21.0601V6.3407H146.949V9.17124H147.091C147.516 7.67108 148.79 6.3407 151.139 6.3407H151.96V9.31293H150.743C148.308 9.31293 146.949 10.1337 146.949 11.6625V21.0601L143.864 21.0601Z" fill="#F2EFE4"/>
<path d="M164.689 21.0601C163.076 21.0601 162.227 20.0409 162.028 18.5974H161.887C161.321 20.4374 159.735 21.3997 157.584 21.3997C154.555 21.3997 152.828 19.673 152.828 17.0123C152.828 14.0967 155.008 12.5963 159.112 12.5963H161.774V11.351C161.774 9.56767 160.811 8.52017 158.745 8.52017C158.032 8.50334 157.328 8.68167 156.71 9.0359C156.091 9.39012 155.581 9.90675 155.234 10.5299L153.395 8.85996C154.357 7.21812 156.084 6.00085 158.943 6.00085C162.736 6.00085 164.859 7.86915 164.859 11.1528V18.5408H166.416V21.0601L164.689 21.0601ZM161.774 16.7008V14.578H159.169C157.018 14.578 155.971 15.2857 155.971 16.5594V17.0689C155.971 18.371 156.933 19.0503 158.461 19.0503C160.358 19.0503 161.774 18.1445 161.774 16.7008Z" fill="#F2EFE4"/>
<path d="M172.389 21.0602C170.266 21.0602 169.134 19.8713 169.134 17.8615V8.86012H166.841V6.34078H168.086C169.105 6.34078 169.445 5.9162 169.445 4.89705V2.32129H172.219V6.34078H175.305V8.86012H172.219V18.5409H175.078V21.0602H172.389Z" fill="#F2EFE4"/>
<path d="M177.787 2.09475V1.6135C177.787 0.679356 178.352 0 179.626 0C180.9 0 181.438 0.679356 181.438 1.6135V2.09475C181.438 3.02889 180.9 3.70825 179.626 3.70825C178.352 3.70825 177.787 3.02889 177.787 2.09475ZM178.07 6.34069H181.155V21.0601H178.07V6.34069Z" fill="#F2EFE4"/>
<path d="M188.194 21.0601L183.184 6.3407H186.241L188.477 13.0493L189.977 18.2013H190.147L191.648 13.0493L193.94 6.3407H196.884L191.817 21.0601H188.194Z" fill="#F2EFE4"/>
<path d="M197.46 13.7003C197.46 9.00143 200.036 6.00085 204.225 6.00085C208.556 6.00085 210.764 9.25621 210.764 13.3324V14.493H200.659V14.9742C200.659 17.2387 202.046 18.8522 204.537 18.8522C205.323 18.8727 206.1 18.6778 206.783 18.2887C207.467 17.8995 208.031 17.331 208.415 16.6444L210.226 18.4277C209.122 20.211 206.971 21.3997 204.225 21.3997C200.036 21.3997 197.46 18.3993 197.46 13.7003ZM200.659 12.2568V12.4549H207.509V12.1718C207.509 9.90724 206.264 8.40709 204.225 8.40709C202.103 8.40707 200.659 9.99224 200.659 12.2568Z" fill="#F2EFE4"/>
</svg>
