<svg xmlns="http://www.w3.org/2000/svg" viewBox="0 0 144 144"><defs><style>.a{fill:#66e271;}.b{fill:#33f;}</style></defs><title>Lockup (Small)</title><circle class="a" cx="72" cy="72" r="41.78449"/><path class="b" d="M43.16519,61.34891c0-4.68338,2.42607-7.67407,6.65827-7.67407a5.66184,5.66184,0,0,1,5.67093,3.61133l-2.5395,1.185a3.03858,3.03858,0,0,0-3.13143-2.22884c-2.25708,0-3.41386,1.55172-3.41386,3.80879v2.624c0,2.25708,1.15678,3.80879,3.41386,3.80879a3.51752,3.51752,0,0,0,3.44187-2.42653l2.342,1.24151a5.77917,5.77917,0,0,1-5.7839,3.72407C45.59126,69.023,43.16519,66.03252,43.16519,61.34891Z"/><path class="b" d="M57.28169,61.34891c0-4.68338,2.652-7.67407,6.74276-7.67407,4.09122,0,6.74323,2.99069,6.74323,7.67407,0,4.68361-2.652,7.67407-6.74323,7.67407C59.9337,69.023,57.28169,66.03252,57.28169,61.34891Zm10.24112,1.24151V60.10763c0-2.59553-1.41027-3.89352-3.49836-3.89352-2.08762,0-3.49835,1.298-3.49835,3.89352v2.48279c0,2.59575,1.41073,3.89351,3.49835,3.89351C66.11254,66.48393,67.52281,65.18617,67.52281,62.59042Z"/><path class="b" d="M82.59909,66.25823h-.141A4.18957,4.18957,0,0,1,78.33888,69.023c-3.69582,0-5.84039-2.84948-5.84039-7.67407,0-4.82436,2.14457-7.67407,5.84039-7.67407a4.154,4.154,0,0,1,4.11922,2.765h.141V47.80644H85.6745V68.68453H82.59909Zm0-2.39829V58.83811c0-1.49546-1.46722-2.511-3.32937-2.511a3.44007,3.44007,0,0,0-3.52637,3.75231v2.53927A3.44007,3.44007,0,0,0,79.26972,66.371C81.13187,66.371,82.59909,65.35539,82.59909,63.85994Z"/><path class="b" d="M87.80942,61.34891c0-4.68338,2.56752-7.67407,6.74323-7.67407,4.31669,0,6.51728,3.24464,6.51728,7.30738V62.139H90.99781v.47966a3.599,3.599,0,0,0,3.86481,3.86527,4.3,4.3,0,0,0,3.86528-2.20059l1.80566,1.77742A6.80562,6.80562,0,0,1,94.55265,69.023C90.37694,69.023,87.80942,66.03252,87.80942,61.34891Zm3.18839-1.43875v.19747h6.82726v-.28219c0-2.25708-1.24128-3.75231-3.27242-3.75231A3.53175,3.53175,0,0,0,90.99781,59.91016Z"/><path class="b" d="M42.93007,83.21525c0-4.68338,2.42607-7.67407,6.65826-7.67407a5.66186,5.66186,0,0,1,5.67094,3.61133l-2.5395,1.185a3.03859,3.03859,0,0,0-3.13144-2.22884c-2.25708,0-3.41386,1.55172-3.41386,3.80879v2.624c0,2.25708,1.15678,3.80879,3.41386,3.80879a3.51753,3.51753,0,0,0,3.44188-2.42653l2.342,1.24151a5.77917,5.77917,0,0,1-5.78391,3.72406C45.35614,90.88931,42.93007,87.89886,42.93007,83.21525Z"/><path class="b" d="M56.81144,83.21525c0-4.68338,2.652-7.67407,6.74277-7.67407,4.09121,0,6.74322,2.99069,6.74322,7.67407,0,4.68361-2.652,7.67406-6.74322,7.67406C59.46345,90.88931,56.81144,87.89886,56.81144,83.21525Zm10.24113,1.24151V81.974c0-2.59553-1.41028-3.89352-3.49836-3.89352-2.08763,0-3.49836,1.298-3.49836,3.89352v2.48279c0,2.59575,1.41073,3.89351,3.49836,3.89351C65.64229,88.35027,67.05257,87.05251,67.05257,84.45676Z"/><path class="b" d="M72.15085,83.21525c0-4.68338,2.652-7.67407,6.74277-7.67407,4.09121,0,6.74322,2.99069,6.74322,7.67407,0,4.68361-2.652,7.67406-6.74322,7.67406C74.80286,90.88931,72.15085,87.89886,72.15085,83.21525ZM82.392,84.45676V81.974c0-2.59553-1.41028-3.89352-3.49836-3.89352-2.08763,0-3.49836,1.298-3.49836,3.89352v2.48279c0,2.59575,1.41073,3.89351,3.49836,3.89351C80.9817,88.35027,82.392,87.05251,82.392,84.45676Z"/><path class="b" d="M87.77177,75.87986h3.07541v2.4263h.141a4.154,4.154,0,0,1,4.11923-2.765c3.69582,0,5.84039,2.84971,5.84039,7.67407,0,4.82459-2.14457,7.67406-5.84039,7.67406a4.18958,4.18958,0,0,1-4.11923-2.76474h-.141v8.069H87.77177ZM97.70291,84.485V81.94573a3.43983,3.43983,0,0,0-3.52637-3.75231c-1.86214,0-3.32936,1.01557-3.32936,2.511v5.02183c0,1.49545,1.46722,2.511,3.32936,2.511A3.43982,3.43982,0,0,0,97.70291,84.485Z"/></svg>